<!-- tampon-a-tester — cadre arrondi imparfait + « À TESTER » tracé en chemins (pas de fonte),
     capitales légèrement irrégulières, type tampon usé. Usage : marquer une fiche à essayer,
     en --cire de préférence (compte dans le quota cire de l'écran). -->
<svg xmlns="http://www.w3.org/2000/svg" viewBox="0 0 92 32" fill="none" stroke="currentColor" stroke-linecap="round" stroke-linejoin="round">
  <!-- cadre -->
  <path stroke-width="2.1" d="M8.4 3.6 C30.2 3.1 52.4 3.4 83.6 3.9 C86.9 4.1 89.2 6.1 89.0 9.2 C88.7 14.9 88.9 20.2 88.4 24.1 C88.1 26.9 85.8 28.6 82.9 28.5 C58.4 28.1 32.6 28.9 9.6 28.3 C6.4 28.2 3.9 26.4 3.8 23.4 C3.6 18.9 3.4 13.6 3.7 9.4 C3.9 6.2 5.9 3.9 9.2 3.7"/>
  <!-- lettres, trait plume -->
  <g stroke-width="1.7">
    <!-- À -->
    <path d="M16.2 22.1 C17.4 18.6 18.4 15.2 19.6 12.1"/>
    <path d="M19.4 12.0 C20.7 15.3 21.9 18.7 23.1 22.3"/>
    <path d="M17.4 18.6 C18.9 18.3 20.4 18.4 21.8 18.5"/>
    <path d="M18.1 7.6 C18.9 8.3 19.7 9.0 20.4 9.6"/>
    <!-- T -->
    <path d="M27.4 12.3 C29.6 12.0 31.9 12.1 34.2 11.9"/>
    <path d="M30.7 12.2 C30.9 15.4 30.8 18.7 30.9 22.2"/>
    <!-- E -->
    <path d="M37.0 12.1 C36.8 15.4 36.9 18.8 37.1 22.1"/>
    <path d="M37.0 12.2 C38.7 12.0 40.4 12.1 42.2 12.0"/>
    <path d="M37.1 17.0 C38.5 16.8 39.9 16.9 41.2 16.8"/>
    <path d="M37.1 22.1 C38.9 22.3 40.7 22.2 42.4 22.1"/>
    <!-- S -->
    <path d="M50.0 13.1 C48.2 11.6 45.4 12.0 44.9 14.1 C44.5 16.1 46.9 16.8 48.2 17.3 C50.3 18.1 50.6 20.4 48.9 21.5 C47.2 22.6 44.9 21.9 44.4 20.6"/>
    <!-- T -->
    <path d="M52.7 12.1 C54.9 11.9 57.2 12.0 59.5 12.2"/>
    <path d="M56.0 12.1 C56.2 15.6 56.1 18.9 56.2 22.3"/>
    <!-- E -->
    <path d="M62.0 12.2 C61.9 15.5 62.0 18.8 62.2 22.0"/>
    <path d="M62.0 12.1 C63.8 12.2 65.6 12.0 67.3 12.1"/>
    <path d="M62.1 16.9 C63.6 17.1 64.9 16.9 66.3 17.0"/>
    <path d="M62.2 22.0 C64.0 21.9 65.8 22.1 67.6 22.0"/>
    <!-- R -->
    <path d="M70.3 22.2 C70.2 18.8 70.1 15.4 70.2 12.1"/>
    <path d="M70.2 12.2 C72.4 11.9 75.6 12.2 75.8 14.6 C76.0 16.9 73.4 17.6 70.4 17.5"/>
    <path d="M71.9 17.7 C73.3 19.1 74.6 20.6 76.2 22.3"/>
  </g>
</svg>
